<svg width="15" height="14" viewBox="0 0 15 14" fill="none" xmlns="http://www.w3.org/2000/svg">
<path d="M5.95536e-08 4.05069C-9.22365e-05 3.51247 0.107097 2.97963 0.315302 2.48331C0.523508 1.98698 0.828553 1.53714 1.21261 1.16007C1.59667 0.782992 2.05203 0.486251 2.55209 0.287187C3.05215 0.0881223 3.58687 -0.00927256 4.125 0.000694555C4.76172 -0.00268682 5.39189 0.129297 5.97374 0.387898C6.55559 0.646498 7.07584 1.02581 7.5 1.50069C7.92416 1.02581 8.44441 0.646498 9.02626 0.387898C9.60811 0.129297 10.2383 -0.00268682 10.875 0.000694555C11.4131 -0.00927256 11.9479 0.0881223 12.4479 0.287187C12.948 0.486251 13.4033 0.782992 13.7874 1.16007C14.1714 1.53714 14.4765 1.98698 14.6847 2.48331C14.8929 2.97963 15.0001 3.51247 15 4.05069C15 8.06769 10.2157 11.1007 7.5 13.5007C4.79025 11.0804 5.95536e-08 8.07069 5.95536e-08 4.05069Z" fill="black"/>
</svg>
